<?xml version="1.0" encoding="utf-8"?>
<!-- Generator: Adobe Illustrator 16.0.0, SVG Export Plug-In . SVG Version: 6.00 Build 0)  -->
<!DOCTYPE svg PUBLIC "-//W3C//DTD SVG 1.1//EN" "http://www.w3.org/Graphics/SVG/1.1/DTD/svg11.dtd">
<svg version="1.1" id="Layer_1" xmlns="http://www.w3.org/2000/svg" xmlns:xlink="http://www.w3.org/1999/xlink" x="0px" y="0px"
	 width="150.667px" height="73.667px" viewBox="0 0 150.667 73.667" enable-background="new 0 0 150.667 73.667"
	 xml:space="preserve">
<g>
	<rect x="114.78" y="1.914" fill="#1FC7C1" width="4.344" height="16.403"/>

	<rect x="90.566" y="8.85" transform="matrix(0.6428 -0.766 0.766 0.6428 20.0627 77.13)" fill="#1FC7C1" width="4.343" height="16.403"/>

	<rect x="138.994" y="8.85" transform="matrix(-0.6429 -0.7659 0.7659 -0.6429 218.8677 136.136)" fill="#1FC7C1" width="4.344" height="16.403"/>
	<path fill="#1FC7C1" d="M80.195,30.847c-3.258-1.882-6.817-2.823-10.679-2.823c-4.634,0-8.882,1.4-12.743,4.199V7.823H48.23v63.351
		h8.543V49.309c0-1.689,0.326-3.306,0.978-4.851c0.652-1.544,1.581-2.92,2.788-4.126c1.206-1.206,2.581-2.136,4.126-2.788
		c1.545-0.651,3.161-0.977,4.852-0.977c1.688,0,3.306,0.326,4.851,0.977c1.544,0.652,2.92,1.582,4.127,2.788
		c1.206,1.207,2.136,2.583,2.787,4.126c0.652,1.545,0.978,3.162,0.978,4.851v21.793h8.544V49.309c0-3.91-0.941-7.481-2.824-10.715
		C86.047,35.312,83.454,32.729,80.195,30.847z"/>
	<path fill="#1FC7C1" d="M137.204,49.526c-0.033-3.921-0.969-7.542-2.816-10.86c-1.932-3.331-4.525-5.96-7.783-7.892
		c-3.258-1.93-6.818-2.896-10.679-2.896c-3.959,0-7.555,0.966-10.788,2.896c-3.33,1.931-5.937,4.574-7.819,7.928
		c-1.883,3.355-2.823,7.035-2.823,11.042v0.072c0,4.103,0.965,7.795,2.896,11.077c1.883,3.379,4.464,6.035,7.747,7.964
		c3.281,1.931,6.853,2.896,10.715,2.896c3.91,0,7.505-0.988,10.788-2.968c0.789-0.476,1.536-0.994,2.244-1.547v4.276h8.326V49.816
		v-0.072v-0.217H137.204z M125.047,59.59c-1.207,1.207-2.606,2.136-4.199,2.787c-1.593,0.652-3.258,0.978-4.996,0.978
		c-1.737,0-3.402-0.326-4.995-0.978c-1.593-0.651-2.993-1.58-4.199-2.787c-2.511-2.509-3.765-5.768-3.765-9.774
		s1.254-7.265,3.765-9.774c2.558-2.558,5.622-3.837,9.194-3.837s6.636,1.279,9.195,3.837c2.558,2.559,3.837,5.816,3.837,9.774
		S127.605,57.031,125.047,59.59z"/>
	<path fill="#1FC7C1" d="M44.532,49.526c-0.034-3.921-0.97-7.542-2.817-10.86c-1.932-3.331-4.525-5.96-7.783-7.892
		c-3.258-1.93-6.818-2.896-10.679-2.896c-3.959,0-7.555,0.966-10.788,2.896c-3.33,1.931-5.937,4.574-7.819,7.928
		c-1.883,3.355-2.823,7.035-2.823,11.042v0.072c0,4.103,0.965,7.795,2.896,11.077c1.883,3.379,4.464,6.035,7.747,7.964
		c3.282,1.931,6.853,2.896,10.716,2.896c3.909,0,7.504-0.988,10.787-2.968c0.789-0.476,1.536-0.994,2.244-1.547v4.276h8.326V49.816
		v-0.072v-0.217H44.532z M32.375,59.59c-1.207,1.207-2.606,2.136-4.199,2.787c-1.593,0.652-3.258,0.978-4.995,0.978
		c-1.738,0-3.403-0.326-4.996-0.978c-1.593-0.651-2.993-1.58-4.199-2.787c-2.51-2.509-3.765-5.768-3.765-9.774
		s1.255-7.265,3.765-9.774c2.558-2.558,5.622-3.837,9.195-3.837c3.57,0,6.636,1.279,9.194,3.837
		c2.558,2.559,3.837,5.816,3.837,9.774S34.932,57.031,32.375,59.59z"/>
</g>
</svg>
